<svg width="591" height="549" viewBox="0 0 591 549" fill="none" xmlns="http://www.w3.org/2000/svg">
<path fill-rule="evenodd" clip-rule="evenodd" d="M289.614 12.9722C287.495 13.8262 273.717 23.2232 255.779 36.0482C242.515 45.5312 237.042 49.3612 212.779 66.1342C182.405 87.1322 169.891 96.0662 147.279 112.892C136.554 120.873 120.477 132.369 111.552 138.438C102.627 144.507 86.6428 155.375 76.0308 162.591C65.4188 169.806 50.1998 180.405 42.2098 186.145C34.2208 191.885 24.7798 198.299 21.2308 200.397C8.42579 207.971 1.39278 213.207 0.469784 215.853C-0.831216 219.587 0.603794 222.541 4.35479 223.849C8.24279 225.204 7.16079 225.82 29.4528 209.575C38.4318 203.032 46.5038 197.483 47.3908 197.245C48.2948 197.001 49.3648 197.614 49.8278 198.641C50.2808 199.648 50.9048 272.032 51.2148 359.494L51.7788 518.517L55.1518 525.368C57.0078 529.136 60.1588 533.851 62.1548 535.845C67.0508 540.737 78.4448 546.552 85.7648 547.894C91.3888 548.925 300.926 549.325 455.779 548.601C507.707 548.358 508.917 548.308 515.586 546.105C526.043 542.651 533.476 535.821 539.154 524.45L543.636 515.472L543.896 386.972C544.195 239.31 544.832 200.972 546.984 200.972C548.728 200.972 564.112 211.561 573.063 218.922C580.439 224.988 584.77 225.989 588.197 222.422C593.18 217.234 591.526 214.687 577.837 206.472C568.448 200.838 552.856 190.398 524.279 170.612C513.554 163.186 500.81 154.492 495.96 151.291L487.14 145.472L487.601 95.9722C488.109 41.3292 488.172 41.9632 481.963 39.6072C479.648 38.7292 472.407 38.5452 455.444 38.9352L432.109 39.4722L426.034 46.2782L426.761 72.0022C427.273 90.1282 427.168 97.9232 426.404 98.3952C425.808 98.7632 424.299 98.5222 423.05 97.8582C419.383 95.9102 399.918 82.7532 384.279 71.6522C376.304 65.9912 365.504 58.4272 360.279 54.8432C334.675 37.2802 314.243 23.0522 309.279 19.3302C299.77 12.1982 295.198 10.7202 289.614 12.9722ZM301.296 28.5502C305.38 31.0682 311.885 35.5072 315.75 38.4142C319.616 41.3212 326.65 46.2202 331.381 49.3022L339.984 54.9052L340.624 61.6892C340.977 65.4202 341.268 84.7302 341.272 104.601L341.279 140.73L300.029 141.192C277.342 141.446 258.459 141.383 258.068 141.052C256.808 139.985 256.635 48.9712 257.893 48.9722C258.505 48.9722 260.08 47.9132 261.393 46.6192C262.705 45.3252 269.749 40.0952 277.045 34.9982C284.341 29.9002 290.556 25.3342 290.854 24.8502C291.849 23.2402 293.813 23.9362 301.296 28.5502ZM475.04 93.2782C475.286 133.633 475.206 135.882 473.54 135.247C469.894 133.858 439.749 112.792 439.084 111.168C438.306 109.272 438.236 60.5732 439.002 54.7462L439.492 51.0192L456.136 50.7322C465.289 50.5732 473.229 50.4882 473.779 50.5412C474.424 50.6042 474.872 65.7742 475.04 93.2782ZM246.279 100.972V142.972L233.029 142.97C225.741 142.969 206.704 142.674 190.723 142.313L161.668 141.659L161.759 129.426C161.825 120.49 162.229 116.737 163.257 115.498C167.029 110.953 242.104 58.9722 244.896 58.9722C246.051 58.9722 246.279 65.8822 246.279 100.972ZM356.228 66.4112C356.885 67.2022 364.253 72.4472 372.601 78.0652C386.39 87.3442 418.291 110.196 430.779 119.739L435.779 123.56L435.426 132.516C435.232 137.442 434.896 141.658 434.679 141.886C434.461 142.114 415.833 142.513 393.281 142.773L352.279 143.245V105.691C352.279 85.0352 352.552 67.4242 352.886 66.5542C353.64 64.5892 354.68 64.5452 356.228 66.4112ZM150.236 131.758C150.884 134.09 151.27 154.918 151.273 187.742L151.279 240.012L107.029 239.47C82.6918 239.173 62.7028 238.601 62.6098 238.2C62.5168 237.8 62.2298 225.918 61.9728 211.796L61.5058 186.121L64.4768 184.89C66.1118 184.213 72.4728 179.838 78.6138 175.169C84.7548 170.499 93.6038 164.116 98.2788 160.985C114.563 150.079 128.841 140.31 138.172 133.693C143.338 130.029 147.934 127.259 148.385 127.538C148.836 127.816 149.669 129.716 150.236 131.758ZM483.644 156.925C502.48 169.548 521.205 182.492 525.256 185.689L532.621 191.501L532.372 214.981C532.235 227.895 531.917 238.667 531.666 238.918C531.09 239.494 525.008 239.531 482.029 239.222L447.279 238.972L447.293 188.722C447.305 143.188 447.585 133.972 448.954 133.972C449.197 133.972 464.808 144.301 483.644 156.925ZM341.043 153.446C341.189 153.568 341.365 172.973 341.435 196.57L341.562 239.472L257.279 239.994V196.983C257.279 163.307 257.55 153.945 258.529 153.847C271.36 152.566 339.595 152.234 341.043 153.446ZM226.588 153.629L246.218 154.287L246.022 238.972H162.279V154.111L164.529 153.678C168.266 152.958 205.666 152.929 226.588 153.629ZM435.507 195.722C435.657 218.684 435.64 237.809 435.47 238.222C435.3 238.635 416.513 238.972 393.72 238.972H352.279V153.972H435.236L435.507 195.722ZM150.279 251.648C150.554 251.921 150.779 271.291 150.779 294.692V337.24L140.373 336.606C134.65 336.257 114.963 335.972 96.6228 335.972H63.2788V251.105L66.0288 250.618C69.5178 250.001 149.606 250.98 150.279 251.648ZM435.649 252.222C435.98 253.46 436.258 273.078 436.265 295.818L436.279 337.164L352.779 336.428L352.258 249.972H435.046L435.649 252.222ZM246.941 272.722C246.579 284.684 246.283 303.951 246.281 315.537L246.279 336.603L204.993 336.478C182.285 336.41 163.16 336.017 162.493 335.604C161.074 334.727 160.94 320.904 161.942 278.722L162.601 250.972H247.598L246.941 272.722ZM340.671 252.722C340.961 253.684 341.079 272.874 340.933 295.366L340.667 336.26L257.779 336.305L257.518 294.889C257.374 272.11 257.472 252.91 257.736 252.223C258.11 251.25 267.32 250.972 299.18 250.972C337.326 250.972 340.18 251.092 340.671 252.722ZM531.18 251.89C532.363 252.639 532.467 259.186 531.849 294.122C531.447 316.861 531.041 335.529 530.948 335.604C530.542 335.935 490.804 336.279 470.029 336.133L447.279 335.972V294.139C447.279 271.13 447.579 252.005 447.946 251.639C448.956 250.628 529.571 250.871 531.18 251.89ZM516.279 346.959C516.279 348.679 505.245 361.109 494.325 371.69C488.525 377.309 483.104 382.602 482.279 383.451C464.419 401.828 448.076 416.281 446.827 414.802C446.674 414.62 446.238 410.917 445.858 406.571L445.168 398.67L462.974 380.648C472.767 370.736 484.216 359.317 488.417 355.273L496.055 347.92L504.766 347.514C509.556 347.291 513.732 346.852 514.044 346.54C514.951 345.634 516.279 345.882 516.279 346.959ZM377.166 349.222C372.907 357.318 360.74 370.556 354.529 373.849L352.279 375.042V363.441C352.279 357.061 352.728 351.002 353.276 349.977C354.14 348.363 355.564 348.106 363.925 348.061C369.233 348.032 373.809 347.776 374.094 347.49C374.379 347.205 375.453 346.972 376.481 346.972C378.103 346.972 378.193 347.269 377.166 349.222ZM453.279 347.628C453.279 348.808 448.201 354.972 447.228 354.972C445.517 354.972 446.194 349.121 448.029 348.052C450.008 346.9 453.279 346.635 453.279 347.628ZM480.279 349.565C480.279 350.376 476.469 354.672 471.812 359.112C467.156 363.553 463.075 368.038 462.745 369.079C462.415 370.12 461.695 370.972 461.147 370.972C460.598 370.972 458.022 373.156 455.421 375.826C452.821 378.496 449.7 381.211 448.486 381.861C446.283 383.04 446.279 383.026 446.279 373.663V364.283L461.308 349.472L470.043 348.415C479.525 347.268 480.279 347.353 480.279 349.565ZM151.299 437.663L110.026 438.224C87.3248 438.533 67.5578 438.557 66.0988 438.278C64.4358 437.96 63.2668 436.968 62.9678 435.621C62.7048 434.439 62.4138 414.23 62.3198 390.712L62.1498 347.951L150.779 348.472L151.299 437.663ZM244.958 348.8C245.843 348.929 246.134 360.063 246.127 393.483L246.117 437.994L161.779 437.472L161.455 423.972C161.277 416.547 161.439 396.522 161.815 379.472L162.498 348.472L203.139 348.55C225.491 348.593 244.31 348.705 244.958 348.8ZM339.697 348.579C342.394 349.171 341.279 354.021 341.279 393.579V437.972L307.529 437.978C288.967 437.981 270.067 438.273 265.529 438.626L257.279 439.268V349.072L263.029 348.711C273.308 348.066 337 347.987 339.697 348.579ZM413.053 348.811C414.785 349.91 407.51 357.92 383.779 381.041C363.823 400.484 354.565 408.972 353.312 408.972C352.899 408.972 352.302 405.035 351.987 400.222L351.412 391.472L355.718 386.972C358.087 384.497 363.119 379.152 366.902 375.095C370.684 371.038 376.704 365.294 380.279 362.33C383.854 359.367 389.158 354.924 392.066 352.457C397.272 348.042 397.466 347.972 404.566 347.987C408.533 347.996 412.352 348.367 413.053 348.811ZM435.743 357.699C436.36 362.197 436.158 363.313 434.29 365.699C431.59 369.15 421.713 379.153 415.753 384.472C413.288 386.672 400.586 398.996 387.525 411.859C365.228 433.819 360.123 437.972 355.428 437.972C351.872 437.972 351.092 428.432 354.227 423.29C355.294 421.54 365.496 410.965 376.898 399.79C388.3 388.615 403.191 374.017 409.988 367.35C417.733 359.753 424.48 354.084 428.062 352.161C434.581 348.663 434.495 348.601 435.743 357.699ZM531.457 361.451L531.042 370.929L520.912 380.701C515.34 386.075 507.843 393.397 504.25 396.972C500.658 400.547 489.983 411.01 480.529 420.222L463.338 436.972H455.368C450.984 436.972 447.127 436.535 446.797 436.001C445.818 434.417 449.203 428.922 452.23 427.186C453.775 426.299 455.841 424.084 456.821 422.265C457.801 420.445 461.117 416.63 464.191 413.787C467.264 410.943 480.83 397.784 494.338 384.544C521.102 358.31 527.967 352.107 530.325 352.026C531.643 351.98 531.81 353.371 531.457 361.451ZM435.244 395.39C434.152 400.677 427.821 408.819 417.779 417.853C415.029 420.327 409.37 425.824 405.203 430.068L397.626 437.786L386.451 438.129C380.305 438.318 375.277 438.441 375.278 438.403C375.288 437.824 386.169 426.331 394.279 418.331C400.054 412.635 409.117 403.699 414.419 398.473C419.721 393.248 424.377 388.972 424.765 388.972C425.154 388.972 427.566 387.128 430.126 384.874L434.779 380.775L435.52 385.624C435.928 388.3 435.805 392.675 435.244 395.39ZM530.066 407.816C529.358 408.799 523.835 414.073 517.792 419.537C511.749 425.001 505.113 431.272 503.045 433.472L499.285 437.472L488.78 437.972C483.002 438.247 478.276 438.192 478.277 437.849C478.285 435.262 512.574 399.835 519.766 394.984C520.999 394.153 523.981 391.976 526.393 390.146L530.779 386.821L531.066 396.425C531.264 403.066 530.955 406.581 530.066 407.816ZM436.061 427.163L436.344 437.691L431.672 438.332C429.102 438.684 423.887 438.972 420.083 438.972H413.166L414.971 435.722C417.261 431.597 433.292 415.81 434.713 416.281C435.353 416.493 435.892 420.843 436.061 427.163ZM530.816 424.264C531.132 425.524 531.253 429.237 531.085 432.514L530.779 438.472L522.529 438.762C517.711 438.932 514.279 438.653 514.279 438.091C514.279 436.911 528.336 421.972 529.445 421.972C529.883 421.972 530.5 423.003 530.816 424.264ZM150.279 450.676C150.554 450.933 150.779 470.454 150.779 494.057V536.972L118.779 536.961C101.179 536.955 85.0868 536.67 83.0188 536.329C78.5948 535.597 71.7498 529.95 67.0028 523.114L63.7788 518.472L63.1818 450.106L66.4798 449.788C71.4478 449.309 149.703 450.139 150.279 450.676ZM246.545 452.222C246.816 454.01 246.799 473.809 246.507 496.222L245.975 536.972H204.194C164.953 536.972 162.379 536.863 161.847 535.185C161.535 534.202 161.352 514.646 161.44 491.727L161.6 450.056L168.189 449.71C171.814 449.519 190.815 449.276 210.416 449.168L246.052 448.972L246.545 452.222ZM340.029 449.893C341.009 449.955 341.279 459.381 341.279 493.472V536.972H299.886C263.063 536.972 258.426 536.797 257.886 535.39C257.552 534.52 257.279 514.96 257.279 491.923V450.038L268.529 449.713C277.635 449.451 335.333 449.596 340.029 449.893ZM434.92 450.319C434.997 450.403 435.389 469.636 435.791 493.059L436.52 535.646L395.35 536.338C372.707 536.718 353.752 536.765 353.23 536.441C352.653 536.085 352.279 518.883 352.279 492.663V449.472L393.529 449.819C416.216 450.009 434.842 450.234 434.92 450.319ZM498.903 450.105C515.471 450.156 529.645 450.58 530.4 451.047C531.5 451.727 531.845 457.771 532.136 481.459C532.335 497.719 532.2 513.015 531.835 515.45C531.039 520.756 524.561 528.55 517.516 532.679C513.43 535.073 511.595 535.409 498.882 536.089C479.287 537.138 448.506 537.149 447.863 536.108C447.044 534.783 447.018 451.203 447.836 449.88C448.349 449.05 451.445 448.903 458.667 449.365C464.228 449.721 482.335 450.054 498.903 450.105Z" fill="#4B423B"/>
</svg>
